<svg width="248" height="75" viewBox="0 0 248 75" fill="none" xmlns="http://www.w3.org/2000/svg">
<path d="M93.1641 32.78C92.4707 33.06 91.8041 33.2733 91.1641 33.42C90.5241 33.5533 89.9107 33.62 89.3241 33.62C87.4441 33.62 86.0041 33.1733 85.0041 32.28C84.0041 31.3733 83.5041 30.0733 83.5041 28.38V24H86.7041V28.02C86.7041 28.98 86.9641 29.7067 87.4841 30.2C88.0041 30.68 88.7441 30.92 89.7041 30.92C90.3174 30.92 90.9107 30.8533 91.4841 30.72C92.0574 30.5733 92.5907 30.3667 93.0841 30.1L93.1641 32.78ZM92.7041 38V24H95.9041V38H92.7041ZM102.365 29.64H109.105V32.16H102.365V29.64ZM102.605 35.4H110.225V38H99.3845V24H109.965V26.6H102.605V35.4ZM112.842 38V24H115.522L121.482 33.88H120.062L125.922 24H128.602L128.622 38H125.582L125.562 28.66H126.142L121.442 36.52H120.002L115.202 28.66H115.882V38H112.842ZM138.799 38.24C137.693 38.24 136.666 38.06 135.719 37.7C134.786 37.34 133.973 36.8333 133.279 36.18C132.599 35.5267 132.066 34.76 131.679 33.88C131.306 33 131.119 32.04 131.119 31C131.119 29.96 131.306 29 131.679 28.12C132.066 27.24 132.606 26.4733 133.299 25.82C133.993 25.1667 134.806 24.66 135.739 24.3C136.673 23.94 137.686 23.76 138.779 23.76C139.886 23.76 140.899 23.94 141.819 24.3C142.753 24.66 143.559 25.1667 144.239 25.82C144.933 26.4733 145.473 27.24 145.859 28.12C146.246 28.9867 146.439 29.9467 146.439 31C146.439 32.04 146.246 33.0067 145.859 33.9C145.473 34.78 144.933 35.5467 144.239 36.2C143.559 36.84 142.753 37.34 141.819 37.7C140.899 38.06 139.893 38.24 138.799 38.24ZM138.779 35.48C139.406 35.48 139.979 35.3733 140.499 35.16C141.033 34.9467 141.499 34.64 141.899 34.24C142.299 33.84 142.606 33.3667 142.819 32.82C143.046 32.2733 143.159 31.6667 143.159 31C143.159 30.3333 143.046 29.7267 142.819 29.18C142.606 28.6333 142.299 28.16 141.899 27.76C141.513 27.36 141.053 27.0533 140.519 26.84C139.986 26.6267 139.406 26.52 138.779 26.52C138.153 26.52 137.573 26.6267 137.039 26.84C136.519 27.0533 136.059 27.36 135.659 27.76C135.259 28.16 134.946 28.6333 134.719 29.18C134.506 29.7267 134.399 30.3333 134.399 31C134.399 31.6533 134.506 32.26 134.719 32.82C134.946 33.3667 135.253 33.84 135.639 34.24C136.039 34.64 136.506 34.9467 137.039 35.16C137.573 35.3733 138.153 35.48 138.779 35.48ZM157.825 36.56V26.64H153.025L152.965 28.68C152.925 29.5467 152.865 30.3667 152.785 31.14C152.718 31.9133 152.611 32.62 152.465 33.26C152.318 33.8867 152.125 34.42 151.885 34.86C151.658 35.3 151.371 35.6133 151.025 35.8L147.565 35.36C148.045 35.3733 148.438 35.2067 148.745 34.86C149.065 34.5133 149.318 34.0267 149.505 33.4C149.691 32.76 149.825 32.0133 149.905 31.16C149.998 30.3067 150.065 29.38 150.105 28.38L150.265 24H161.025V36.56H157.825ZM147.105 40.9L147.125 35.36H162.985V40.9H159.985V38H150.105V40.9H147.105ZM163.664 38L169.904 24H173.104L179.364 38H175.964L170.844 25.64H172.124L166.984 38H163.664ZM166.784 35L167.644 32.54H174.844L175.724 35H166.784ZM190.82 24H194.06V38H190.82V24ZM184.46 38H181.22V24H184.46V38ZM191.06 32.26H184.22V29.52H191.06V32.26ZM205.938 32.78C205.244 33.06 204.578 33.2733 203.938 33.42C203.298 33.5533 202.684 33.62 202.098 33.62C200.218 33.62 198.778 33.1733 197.778 32.28C196.778 31.3733 196.278 30.0733 196.278 28.38V24H199.478V28.02C199.478 28.98 199.738 29.7067 200.258 30.2C200.778 30.68 201.518 30.92 202.478 30.92C203.091 30.92 203.684 30.8533 204.258 30.72C204.831 30.5733 205.364 30.3667 205.858 30.1L205.938 32.78ZM205.478 38V24H208.678V38H205.478ZM212.158 38V24H215.378V33.12L222.058 24H225.098V38H221.898V28.9L215.218 38H212.158ZM237.644 38L233.284 31.26L235.904 29.68L241.324 38H237.644ZM228.544 38V24H231.764V38H228.544ZM230.824 32.36V29.66H235.704V32.36H230.824ZM236.204 31.36L233.224 31L237.764 24H241.184L236.204 31.36ZM85.36 62.24C84.28 62.24 83.2733 62.0667 82.34 61.72C81.42 61.36 80.62 60.8533 79.94 60.2C79.26 59.5467 78.7267 58.78 78.34 57.9C77.9667 57.02 77.78 56.0533 77.78 55C77.78 53.9467 77.9667 52.98 78.34 52.1C78.7267 51.22 79.26 50.4533 79.94 49.8C80.6333 49.1467 81.44 48.6467 82.36 48.3C83.28 47.94 84.2867 47.76 85.38 47.76C86.5933 47.76 87.6867 47.9733 88.66 48.4C89.6467 48.8133 90.4733 49.4267 91.14 50.24L89.06 52.16C88.58 51.6133 88.0467 51.2067 87.46 50.94C86.8733 50.66 86.2333 50.52 85.54 50.52C84.8867 50.52 84.2867 50.6267 83.74 50.84C83.1933 51.0533 82.72 51.36 82.32 51.76C81.92 52.16 81.6067 52.6333 81.38 53.18C81.1667 53.7267 81.06 54.3333 81.06 55C81.06 55.6667 81.1667 56.2733 81.38 56.82C81.6067 57.3667 81.92 57.84 82.32 58.24C82.72 58.64 83.1933 58.9467 83.74 59.16C84.2867 59.3733 84.8867 59.48 85.54 59.48C86.2333 59.48 86.8733 59.3467 87.46 59.08C88.0467 58.8 88.58 58.38 89.06 57.82L91.14 59.74C90.4733 60.5533 89.6467 61.1733 88.66 61.6C87.6867 62.0267 86.5867 62.24 85.36 62.24ZM108.196 60.56V50.64H103.396L103.336 52.68C103.296 53.5467 103.236 54.3667 103.156 55.14C103.089 55.9133 102.982 56.62 102.836 57.26C102.689 57.8867 102.496 58.42 102.256 58.86C102.029 59.3 101.742 59.6133 101.396 59.8L97.9358 59.36C98.4158 59.3733 98.8091 59.2067 99.1158 58.86C99.4358 58.5133 99.6891 58.0267 99.8758 57.4C100.062 56.76 100.196 56.0133 100.276 55.16C100.369 54.3067 100.436 53.38 100.476 52.38L100.636 48H111.396V60.56H108.196ZM97.4758 64.9L97.4958 59.36H113.356V64.9H110.356V62H100.476V64.9H97.4758ZM118.517 53.64H125.257V56.16H118.517V53.64ZM118.757 59.4H126.377V62H115.537V48H126.117V50.6H118.757V59.4ZM138.594 48H141.834V62H138.594V48ZM132.234 62H128.994V48H132.234V62ZM138.834 56.26H131.994V53.52H138.834V56.26ZM152.122 52.6C153.815 52.6 155.122 52.98 156.042 53.74C156.962 54.4867 157.422 55.6133 157.422 57.12C157.422 58.72 156.908 59.9333 155.882 60.76C154.868 61.5867 153.462 62 151.662 62H145.342V48H148.562V52.6H152.122ZM151.482 59.6C152.308 59.6 152.962 59.3933 153.442 58.98C153.922 58.5667 154.162 57.9667 154.162 57.18C154.162 56.4067 153.922 55.8533 153.442 55.52C152.975 55.1733 152.322 55 151.482 55H148.562V59.6H151.482ZM159.756 62V48H169.636L169.616 50.64H162.216L162.956 49.9L162.976 62H159.756ZM167.297 62L173.537 48H176.737L182.997 62H179.597L174.477 49.64H175.757L170.617 62H167.297ZM170.417 59L171.277 56.54H178.477L179.357 59H170.417ZM184.853 62V48H187.533L193.493 57.88H192.073L197.933 48H200.613L200.633 62H197.593L197.573 52.66H198.153L193.453 60.52H192.013L187.213 52.66H187.893V62H184.853ZM204.111 62V48H207.331V57.12L214.011 48H217.051V62H213.851V52.9L207.171 62H204.111Z" fill="white"/>
<path d="M64.9688 21.0938H12.0312C10.7023 21.0938 9.625 22.1431 9.625 23.4375V60.9375C9.625 62.2319 10.7023 63.2812 12.0312 63.2812H64.9688C66.2977 63.2812 67.375 62.2319 67.375 60.9375V23.4375C67.375 22.1431 66.2977 21.0938 64.9688 21.0938Z" stroke="white" stroke-width="4" stroke-linecap="round" stroke-linejoin="round"/>
<path d="M50.5312 63.2812V16.4062C50.5312 15.163 50.0242 13.9708 49.1217 13.0917C48.2192 12.2126 46.9951 11.7188 45.7188 11.7188H31.2812C30.0049 11.7188 28.7808 12.2126 27.8783 13.0917C26.9758 13.9708 26.4688 15.163 26.4688 16.4062V63.2812" stroke="white" stroke-width="4" stroke-linecap="round" stroke-linejoin="round"/>
</svg>
